<?xml version="1.0" encoding="UTF-8"?>
<svg width="1900px" height="250px" viewBox="0 0 1900 250" version="1.1" xmlns="http://www.w3.org/2000/svg" xmlns:xlink="http://www.w3.org/1999/xlink">
    <defs>
        <linearGradient x1="50%" y1="0%" x2="50%" y2="100%" id="linearGradient-1">
            <stop stop-color="#000000" stop-opacity="0" offset="0%"></stop>
            <stop stop-color="#ffc2e8" offset="50%"></stop>
            <stop stop-color="#50e6ff" offset="90%"></stop>
        </linearGradient>
    </defs>
    <g id="Page-1" stroke="none" stroke-width="1" fill="none" fill-rule="evenodd" opacity="0.2">
        <g id="Artboard" transform="translate(0.000000, -104.000000)" fill="url(#linearGradient-1)">
            <path d="M154.272833,104 L29.883434,164.9375 L81.9844304,164.9375 L199.330996,104 L201.133323,104 L84.068758,164.9375 L136.170782,164.9375 L246.191486,104 L247.993813,104 L138.25511,164.9375 L190.356106,164.9375 L293.051976,104 L294.854303,104 L192.440434,164.9375 L244.542458,164.9375 L339.912466,104 L341.714793,104 L246.626785,164.9375 L298.727782,164.9375 L386.772956,104 L388.575283,104 L300.812109,164.9375 L352.914134,164.9375 L433.633446,104 L435.435773,104 L354.997433,164.9375 L407.099458,164.9375 L480.493936,104 L482.296263,104 L409.183785,164.9375 L461.285809,164.9375 L527.354426,104 L529.156753,104 L463.369109,164.9375 L515.471133,164.9375 L574.214917,104 L576.017243,104 L517.555461,164.9375 L569.656457,164.9375 L621.075407,104 L622.877733,104 L571.740785,164.9375 L623.842809,164.9375 L667.935897,104 L669.738223,104 L625.927137,164.9375 L678.028133,164.9375 L714.796387,104 L716.598713,104 L680.112461,164.9375 L732.214485,164.9375 L761.656877,104 L763.459203,104 L734.298812,164.9375 L786.399809,164.9375 L808.517367,104 L810.319693,104 L788.484136,164.9375 L840.58616,164.9375 L855.377857,104 L857.180183,104 L842.66946,164.9375 L894.771484,164.9375 L902.238347,104 L904.040673,104 L896.855812,164.9375 L948.957836,164.9375 L949.098837,104 L950.901163,104 L951.041136,164.9375 L1003.14316,164.9375 L995.959327,104 L997.761653,104 L1005.22749,164.9375 L1057.32951,164.9375 L1042.81982,104 L1044.62214,104 L1059.41281,164.9375 L1111.51484,164.9375 L1089.68031,104 L1091.48263,104 L1113.59916,164.9375 L1165.70016,164.9375 L1136.5408,104 L1138.34312,104 L1167.78449,164.9375 L1219.88651,164.9375 L1183.40129,104 L1185.20361,104 L1221.97084,164.9375 L1274.07184,164.9375 L1230.26178,104 L1232.0641,104 L1276.15616,164.9375 L1328.25819,164.9375 L1277.12227,104 L1278.92459,104 L1330.34251,164.9375 L1382.44351,164.9375 L1323.98276,104 L1325.78508,104 L1384.52784,164.9375 L1436.62986,164.9375 L1370.84325,104 L1372.64557,104 L1438.71316,164.9375 L1490.81519,164.9375 L1417.70374,104 L1419.50606,104 L1492.89951,164.9375 L1545.00154,164.9375 L1464.56423,104 L1466.36655,104 L1547.08484,164.9375 L1599.18686,164.9375 L1511.42472,104 L1513.22704,104 L1601.27119,164.9375 L1653.37219,164.9375 L1558.28521,104 L1560.08753,104 L1655.45651,164.9375 L1707.55854,164.9375 L1605.1457,104 L1606.94802,104 L1709.64287,164.9375 L1761.74386,164.9375 L1652.00619,104 L1653.80851,104 L1763.82819,164.9375 L1815.93021,164.9375 L1698.86668,104 L1700.669,104 L1818.01454,164.9375 L1870.11554,164.9375 L1745.72717,104 L1747.52949,104 L1872.19987,164.9375 L1875.39655,166.5 L1968.10053,211.8125 L1971.29722,213.375 L2064.00119,258.6875 L2067.19788,260.25 L2159.90185,305.5625 L2163.09854,307.125 L2259,354 L2256.04181,354 L2160.35673,307.125 L2091.821,307.125 L2182.08701,354 L2179.12881,354 L2089.07919,307.125 L2020.54211,307.125 L2105.17401,354 L2102.21582,354 L2017.8003,307.125 L1949.26457,307.125 L2028.26102,354 L2025.30282,354 L1946.52276,307.125 L1877.98568,307.125 L1951.34802,354 L1948.38983,354 L1875.24387,307.125 L1806.70814,307.125 L1874.43503,354 L1871.47684,354 L1803.96633,307.125 L1735.42925,307.125 L1797.52203,354 L1794.56384,354 L1732.68879,307.125 L1664.15171,307.125 L1720.60904,354 L1717.65085,354 L1661.4099,307.125 L1592.87281,307.125 L1643.69605,354 L1640.73785,354 L1590.13236,307.125 L1521.59528,307.125 L1566.78305,354 L1563.82486,354 L1518.85347,307.125 L1450.31774,307.125 L1489.87006,354 L1486.91186,354 L1447.57593,307.125 L1379.03884,307.125 L1412.95706,354 L1409.99887,354 L1376.29704,307.125 L1307.76131,307.125 L1336.04407,354 L1333.08588,354 L1305.0195,307.125 L1236.48241,307.125 L1259.13107,354 L1256.17288,354 L1233.74061,307.125 L1165.20487,307.125 L1182.21808,354 L1179.25989,354 L1162.46307,307.125 L1093.92598,307.125 L1105.30508,354 L1102.34689,354 L1091.18553,307.125 L1022.64844,307.125 L1028.39209,354 L1025.4339,354 L1019.90664,307.125 L951.369552,307.125 L951.479096,354 L948.520904,354 L948.629096,307.125 L880.092012,307.125 L874.566102,354 L871.60791,354 L877.350205,307.125 L808.813121,307.125 L797.653107,354 L794.694915,354 L806.072665,307.125 L737.535582,307.125 L720.740113,354 L717.781921,354 L734.793774,307.125 L666.258042,307.125 L643.827119,354 L640.868927,354 L663.516234,307.125 L594.979151,307.125 L566.914124,354 L563.955932,354 L592.237343,307.125 L523.701611,307.125 L490.00113,354 L487.042938,354 L520.959803,307.125 L452.42272,307.125 L413.088136,354 L410.129944,354 L449.680912,307.125 L381.14518,307.125 L336.175141,354 L333.216949,354 L378.403373,307.125 L309.866289,307.125 L259.262147,354 L256.303955,354 L307.125833,307.125 L238.58875,307.125 L182.349153,354 L179.39096,354 L235.846942,307.125 L167.309858,307.125 L105.436158,354 L102.477966,354 L164.569402,307.125 L96.0323186,307.125 L28.5231638,354 L25.5649718,354 L93.2905108,307.125 L24.7547792,307.125 L-48.3898305,354 L-51.3480226,354 L22.0129714,307.125 L-46.5241123,307.125 L-125.302825,354 L-128.261017,354 L-49.2659201,307.125 L-117.801652,307.125 L-202.215819,354 L-205.174011,354 L-120.54346,307.125 L-189.080543,307.125 L-279.128814,354 L-282.087006,354 L-191.822351,307.125 L-260.358083,307.125 L-356.041808,354 L-359,354 L-263.09989,307.125 L-259.903198,305.5625 L-167.199122,260.25 L-164.00243,258.6875 L-71.2983541,213.375 L-68.1016618,211.8125 L24.6024141,166.5 L27.7991064,164.9375 L152.470506,104 L154.272833,104 Z M2064.67282,260.25 L2001.55513,260.25 L2088.81214,305.5625 L2157.16727,305.5625 L2064.67282,260.25 Z M-35.9123909,260.25 L-99.031323,260.25 L-186.078902,305.5625 L-117.722424,305.5625 L-35.9123909,260.25 Z M29.7303523,260.25 L-33.3873347,260.25 L-114.987841,305.5625 L-46.632711,305.5625 L29.7303523,260.25 Z M95.3743405,260.25 L32.2554084,260.25 L-43.8981282,305.5625 L24.4583503,305.5625 L95.3743405,260.25 Z M161.017084,260.25 L97.8993966,260.25 L27.1929331,305.5625 L95.5480632,305.5625 L161.017084,260.25 Z M226.661072,260.25 L163.54214,260.25 L98.282646,305.5625 L166.639125,305.5625 L226.661072,260.25 Z M292.303815,260.25 L229.184883,260.25 L169.372359,305.5625 L237.728837,305.5625 L292.303815,260.25 Z M357.947803,260.25 L294.828871,260.25 L240.46342,305.5625 L308.819899,305.5625 L357.947803,260.25 Z M423.590546,260.25 L360.471614,260.25 L311.553133,305.5625 L379.909612,305.5625 L423.590546,260.25 Z M489.23329,260.25 L426.115603,260.25 L382.644194,305.5625 L450.999325,305.5625 L489.23329,260.25 Z M554.877278,260.25 L491.758346,260.25 L453.733907,305.5625 L522.090386,305.5625 L554.877278,260.25 Z M620.520021,260.25 L557.402334,260.25 L524.824969,305.5625 L593.180099,305.5625 L620.520021,260.25 Z M686.164009,260.25 L623.045077,260.25 L595.914682,305.5625 L664.27116,305.5625 L686.164009,260.25 Z M751.806752,260.25 L688.689065,260.25 L667.005743,305.5625 L735.360873,305.5625 L751.806752,260.25 Z M817.450741,260.25 L754.331808,260.25 L738.095456,305.5625 L806.451934,305.5625 L817.450741,260.25 Z M883.093484,260.25 L819.974552,260.25 L809.185169,305.5625 L877.541647,305.5625 L883.093484,260.25 Z M948.737472,260.25 L885.61854,260.25 L880.27623,305.5625 L948.632709,305.5625 L948.737472,260.25 Z M-101.556379,260.25 L-164.674066,260.25 L-257.168615,305.5625 L-188.813485,305.5625 L-101.556379,260.25 Z M1014.38022,260.25 L951.261283,260.25 L951.365943,305.5625 L1019.72242,305.5625 L1014.38022,260.25 Z M1080.0242,260.25 L1016.90527,260.25 L1022.457,305.5625 L1090.81348,305.5625 L1080.0242,260.25 Z M1145.66695,260.25 L1082.54801,260.25 L1093.54672,305.5625 L1161.9032,305.5625 L1145.66695,260.25 Z M1211.30969,260.25 L1148.192,260.25 L1164.63778,305.5625 L1232.99291,305.5625 L1211.30969,260.25 Z M1276.95368,260.25 L1213.83475,260.25 L1235.72749,305.5625 L1304.08397,305.5625 L1276.95368,260.25 Z M1342.59642,260.25 L1279.47873,260.25 L1306.81855,305.5625 L1375.17368,305.5625 L1342.59642,260.25 Z M1408.24041,260.25 L1345.12148,260.25 L1377.90827,305.5625 L1446.26474,305.5625 L1408.24041,260.25 Z M1473.88315,260.25 L1410.76547,260.25 L1448.99933,305.5625 L1517.35446,305.5625 L1473.88315,260.25 Z M1539.52714,260.25 L1476.40821,260.25 L1520.08904,305.5625 L1588.44552,305.5625 L1539.52714,260.25 Z M1605.16988,260.25 L1542.05095,260.25 L1591.17875,305.5625 L1659.53523,305.5625 L1605.16988,260.25 Z M1670.81387,260.25 L1607.69494,260.25 L1662.26981,305.5625 L1730.62629,305.5625 L1670.81387,260.25 Z M1736.45662,260.25 L1673.33768,260.25 L1733.35953,305.5625 L1801.71601,305.5625 L1736.45662,260.25 Z M1802.09936,260.25 L1738.98167,260.25 L1804.45059,305.5625 L1872.80572,305.5625 L1802.09936,260.25 Z M1867.74335,260.25 L1804.62441,260.25 L1875.5403,305.5625 L1943.89678,305.5625 L1867.74335,260.25 Z M1933.38609,260.25 L1870.2684,260.25 L1946.63136,305.5625 L2014.98649,305.5625 L1933.38609,260.25 Z M1999.03008,260.25 L1935.91115,260.25 L2017.72108,305.5625 L2086.07755,305.5625 L1999.03008,260.25 Z M1908.98096,213.375 L1851.28018,213.375 L1933.09011,258.6875 L1996.02844,258.6875 L1908.98096,213.375 Z M48.7186778,213.375 L-8.98210283,213.375 L-96.0296823,258.6875 L-33.0913552,258.6875 L48.7186778,213.375 Z M108.726625,213.375 L51.0269822,213.375 L-30.5735242,258.6875 L32.3635614,258.6875 L108.726625,213.375 Z M168.73571,213.375 L111.034929,213.375 L34.8813924,258.6875 L97.8197195,258.6875 L168.73571,213.375 Z M228.743657,213.375 L171.044014,213.375 L100.337551,258.6875 L163.274636,258.6875 L228.743657,213.375 Z M288.752742,213.375 L231.051961,213.375 L165.792467,258.6875 L228.730794,258.6875 L288.752742,213.375 Z M348.760688,213.375 L291.059908,213.375 L231.247384,258.6875 L294.185711,258.6875 L348.760688,213.375 Z M408.769773,213.375 L351.068993,213.375 L296.703542,258.6875 L359.641869,258.6875 L408.769773,213.375 Z M468.77772,213.375 L411.07694,213.375 L362.158458,258.6875 L425.096786,258.6875 L468.77772,213.375 Z M528.785667,213.375 L471.086025,213.375 L427.614617,258.6875 L490.551702,258.6875 L528.785667,213.375 Z M588.794752,213.375 L531.093972,213.375 L493.069533,258.6875 L556.00786,258.6875 L588.794752,213.375 Z M648.802699,213.375 L591.103057,213.375 L558.525691,258.6875 L621.462777,258.6875 L648.802699,213.375 Z M708.811784,213.375 L651.111003,213.375 L623.980608,258.6875 L686.918935,258.6875 L708.811784,213.375 Z M768.819731,213.375 L711.120088,213.375 L689.436766,258.6875 L752.373852,258.6875 L768.819731,213.375 Z M828.828816,213.375 L771.128035,213.375 L754.891683,258.6875 L817.83001,258.6875 L828.828816,213.375 Z M888.836763,213.375 L831.135982,213.375 L820.346599,258.6875 L883.284926,258.6875 L888.836763,213.375 Z M948.845848,213.375 L891.145067,213.375 L885.802757,258.6875 L948.741084,258.6875 L948.845848,213.375 Z M1008.85379,213.375 L951.153014,213.375 L951.257674,258.6875 L1014.196,258.6875 L1008.85379,213.375 Z M1968.98891,213.375 L1911.28927,213.375 L1998.54627,258.6875 L2061.48336,258.6875 L1968.98891,213.375 Z M1068.86288,213.375 L1011.1621,213.375 L1016.71383,258.6875 L1079.65216,258.6875 L1068.86288,213.375 Z M1128.87083,213.375 L1071.17005,213.375 L1082.16875,258.6875 L1145.10708,258.6875 L1128.87083,213.375 Z M1188.87877,213.375 L1131.17913,213.375 L1147.62491,258.6875 L1210.56199,258.6875 L1188.87877,213.375 Z M1248.88786,213.375 L1191.18708,213.375 L1213.07982,258.6875 L1276.01815,258.6875 L1248.88786,213.375 Z M1308.89581,213.375 L1251.19616,213.375 L1278.53598,258.6875 L1341.47307,258.6875 L1308.89581,213.375 Z M1368.90489,213.375 L1311.20411,213.375 L1343.9909,258.6875 L1406.92923,258.6875 L1368.90489,213.375 Z M1428.91284,213.375 L1371.21319,213.375 L1409.44706,258.6875 L1472.38414,258.6875 L1428.91284,213.375 Z M1488.92192,213.375 L1431.22114,213.375 L1474.90197,258.6875 L1537.8403,258.6875 L1488.92192,213.375 Z M1548.92987,213.375 L1491.22909,213.375 L1540.35689,258.6875 L1603.29522,258.6875 L1548.92987,213.375 Z M1608.93895,213.375 L1551.23817,213.375 L1605.81305,258.6875 L1668.75137,258.6875 L1608.93895,213.375 Z M1668.9469,213.375 L1611.24612,213.375 L1671.26796,258.6875 L1734.20629,258.6875 L1668.9469,213.375 Z M1728.95485,213.375 L1671.25521,213.375 L1736.72412,258.6875 L1799.66121,258.6875 L1728.95485,213.375 Z M1788.96393,213.375 L1731.26315,213.375 L1802.17904,258.6875 L1865.11737,258.6875 L1788.96393,213.375 Z M1848.97188,213.375 L1791.27224,213.375 L1867.6352,258.6875 L1930.57228,258.6875 L1848.97188,213.375 Z M-11.2904072,213.375 L-68.9900497,213.375 L-161.484599,258.6875 L-98.5475134,258.6875 L-11.2904072,213.375 Z M78.9755646,166.5 L26.6939668,166.5 L-65.8005824,211.8125 L-8.2815415,211.8125 L78.9755646,166.5 Z M1873.305,166.5 L1821.0234,166.5 L1908.28041,211.8125 L1965.79945,211.8125 L1873.305,166.5 Z M1818.93185,166.5 L1766.64922,166.5 L1848.45915,211.8125 L1905.97933,211.8125 L1818.93185,166.5 Z M1764.55767,166.5 L1712.27607,166.5 L1788.63903,211.8125 L1846.15807,211.8125 L1764.55767,166.5 Z M1710.18452,166.5 L1657.90189,166.5 L1728.81778,211.8125 L1786.33795,211.8125 L1710.18452,166.5 Z M1655.81034,166.5 L1603.52874,166.5 L1668.99766,211.8125 L1726.5167,211.8125 L1655.81034,166.5 Z M1601.43719,166.5 L1549.15456,166.5 L1609.1764,211.8125 L1666.69658,211.8125 L1601.43719,166.5 Z M1547.06404,166.5 L1494.78141,166.5 L1549.35628,211.8125 L1606.87646,211.8125 L1547.06404,166.5 Z M1492.68985,166.5 L1440.40723,166.5 L1489.53503,211.8125 L1547.0552,211.8125 L1492.68985,166.5 Z M1438.3167,166.5 L1386.03407,166.5 L1429.71491,211.8125 L1487.23508,211.8125 L1438.3167,166.5 Z M1383.94252,166.5 L1331.66092,166.5 L1369.89479,211.8125 L1427.41383,211.8125 L1383.94252,166.5 Z M1329.56937,166.5 L1277.28674,166.5 L1310.07353,211.8125 L1367.59371,211.8125 L1329.56937,166.5 Z M1275.19519,166.5 L1222.91359,166.5 L1250.25341,211.8125 L1307.77245,211.8125 L1275.19519,166.5 Z M1220.82204,166.5 L1168.53941,166.5 L1190.43216,211.8125 L1247.95233,211.8125 L1220.82204,166.5 Z M1166.44786,166.5 L1114.16626,166.5 L1130.61204,211.8125 L1188.13108,211.8125 L1166.44786,166.5 Z M1112.07471,166.5 L1059.79208,166.5 L1070.79078,211.8125 L1128.31096,211.8125 L1112.07471,166.5 Z M1057.70156,166.5 L1005.41893,166.5 L1010.97066,211.8125 L1068.49084,211.8125 L1057.70156,166.5 Z M1003.32737,166.5 L951.044745,166.5 L951.149405,211.8125 L1008.66958,211.8125 L1003.32737,166.5 Z M948.954224,166.5 L896.671594,166.5 L891.329285,211.8125 L948.84946,211.8125 L948.954224,166.5 Z M894.580042,166.5 L842.297413,166.5 L831.50803,211.8125 L889.028205,211.8125 L894.580042,166.5 Z M840.206891,166.5 L787.924262,166.5 L771.68791,211.8125 L829.208085,211.8125 L840.206891,166.5 Z M785.832709,166.5 L733.551112,166.5 L711.867789,211.8125 L769.38683,211.8125 L785.832709,166.5 Z M731.459559,166.5 L679.17693,166.5 L652.046534,211.8125 L709.56671,211.8125 L731.459559,166.5 Z M677.085377,166.5 L624.803779,166.5 L592.226414,211.8125 L649.745455,211.8125 L677.085377,166.5 Z M622.712227,166.5 L570.429597,166.5 L532.405159,211.8125 L589.925335,211.8125 L622.712227,166.5 Z M568.338045,166.5 L516.056447,166.5 L472.585039,211.8125 L530.10408,211.8125 L568.338045,166.5 Z M513.964894,166.5 L461.682265,166.5 L412.763784,211.8125 L470.283959,211.8125 L513.964894,166.5 Z M459.591744,166.5 L407.309114,166.5 L352.943664,211.8125 L410.463839,211.8125 L459.591744,166.5 Z M405.217562,166.5 L352.934933,166.5 L293.122409,211.8125 L350.642584,211.8125 L405.217562,166.5 Z M350.844411,166.5 L298.561782,166.5 L233.302288,211.8125 L290.822464,211.8125 L350.844411,166.5 Z M296.470229,166.5 L244.188632,166.5 L173.482168,211.8125 L231.001209,211.8125 L296.470229,166.5 Z M242.097079,166.5 L189.81445,166.5 L113.660913,211.8125 L171.181089,211.8125 L242.097079,166.5 Z M187.722897,166.5 L135.441299,166.5 L53.8407928,211.8125 L111.359834,211.8125 L187.722897,166.5 Z M133.349746,166.5 L81.0671173,166.5 L-5.98046216,211.8125 L51.5397134,211.8125 L133.349746,166.5 Z" id="Combined-Shape"></path>
        </g>
    </g>
</svg>
